<?xml version="1.0" encoding="utf-8"?>
<!-- Generator: Adobe Illustrator 16.0.3, SVG Export Plug-In . SVG Version: 6.00 Build 0)  -->
<!DOCTYPE svg PUBLIC "-//W3C//DTD SVG 1.1//EN" "http://www.w3.org/Graphics/SVG/1.1/DTD/svg11.dtd">
<svg version="1.1" id="圖層_1" xmlns="http://www.w3.org/2000/svg" xmlns:xlink="http://www.w3.org/1999/xlink" x="0px" y="0px"
	 width="50px" height="50px" viewBox="0 0 50 50" enable-background="new 0 0 50 50" xml:space="preserve">
<ellipse fill="#FFFFFF" stroke="#000000" stroke-miterlimit="10" cx="8.405" cy="25.49" rx="5.489" ry="5.432"/>
<ellipse fill="#FFFFFF" stroke="#000000" stroke-miterlimit="10" cx="21.69" cy="8.946" rx="5.489" ry="5.432"/>
<ellipse fill="#FFFFFF" stroke="#000000" stroke-miterlimit="10" cx="11.746" cy="15.052" rx="5.489" ry="5.432"/>
<ellipse fill="#FFFFFF" stroke="#000000" stroke-miterlimit="10" cx="40.404" cy="30.652" rx="5.489" ry="5.432"/>
<ellipse fill="#FFFFFF" stroke="#000000" stroke-miterlimit="10" cx="22.296" cy="41.353" rx="5.489" ry="5.432"/>
<ellipse fill="#FFFFFF" stroke="#000000" stroke-miterlimit="10" cx="12.317" cy="35.921" rx="5.489" ry="5.432"/>
<ellipse fill="#FFFFFF" stroke="#000000" stroke-miterlimit="10" cx="33.274" cy="39.195" rx="5.489" ry="5.431"/>
<ellipse fill="#FFFFFF" stroke="#000000" stroke-miterlimit="10" cx="40.404" cy="19.088" rx="5.489" ry="5.431"/>
<ellipse fill="#FFFFFF" stroke="#000000" stroke-miterlimit="10" cx="33.274" cy="10.637" rx="5.489" ry="5.43"/>
<ellipse fill="none" stroke="#000000" stroke-width="3" stroke-miterlimit="10" cx="25" cy="25" rx="17.541" ry="17.686"/>
<ellipse fill="#FFFFFF" stroke="#000000" stroke-width="3" stroke-miterlimit="10" cx="25" cy="25" rx="7.194" ry="7.62"/>
<ellipse fill="none" stroke="#E60012" stroke-width="3" stroke-miterlimit="10" cx="25" cy="25" rx="9.044" ry="9.281"/>
<g id="圖層_2">
</g>
<ellipse fill="none" stroke="#FFFFFF" stroke-width="6" stroke-miterlimit="10" cx="25.032" cy="24.92" rx="21.64" ry="21.658"/>
<ellipse fill="none" stroke="#000000" stroke-width="2" stroke-miterlimit="10" cx="24.893" cy="25.025" rx="9.802" ry="10.077"/>
<path fill="none" stroke="#000000" stroke-miterlimit="10" d="M17.942,14.291c0.48,0.061,0.561,1.183,0.562,1.592"/>
<path fill="none" stroke="#000000" stroke-miterlimit="10" d="M17.755,13.214c0.111,1.029-0.312,2.133,0.047,3.136"/>
<path fill="none" stroke="#000000" stroke-miterlimit="10" d="M18.457,14.665c0.32,0.133,0.26,1.2,0.328,1.545"/>
<path fill="none" stroke="#000000" stroke-miterlimit="10" d="M18.598,13.822c0.633,0.308,0.916,1.258,1.498,1.639"/>
<path fill="none" stroke="#000000" stroke-miterlimit="10" d="M20.798,14.524c-0.623,0.052-1.229,0.781-1.736,1.13
	c-0.613,0.422-0.958,1.022-1.502,1.5c-0.05-0.065-0.035-0.116-0.039-0.196"/>
<path fill="none" stroke="#000000" stroke-miterlimit="10" d="M17.614,13.073c0.321,0.491,0.726,1.165,1.264,1.404"/>
<path fill="none" stroke="#000000" stroke-miterlimit="10" d="M27.165,12.511c-0.354,0.452-0.791,1.025-1.298,1.371
	c-0.475,0.324-1.03,0.391-1.511,0.643"/>
<path fill="none" stroke="#000000" stroke-miterlimit="10" d="M26.79,11.856c0.471,0.204,0.546,1.172,0.701,1.594
	c0.184,0.499,0.523,0.911,0.751,1.402"/>
<path fill="none" stroke="#000000" stroke-miterlimit="10" d="M28.102,12.464c0.581,0.592,0.292,2.286,1.17,2.669"/>
<path fill="none" stroke="#000000" stroke-miterlimit="10" d="M25.339,13.822c0.491-0.704,1.011-1.2,1.647-1.759
	c0.455-0.399,0.695-0.805,0.226-1.331"/>
<path fill="none" stroke="#000000" stroke-miterlimit="10" d="M27.586,14.805c-0.424-0.198-0.626-0.997-0.843-1.357"/>
<path fill="none" stroke="#000000" stroke-miterlimit="10" d="M31.659,16.21c0.512,0.245,0.991,1.064,1.393,1.51
	c0.462,0.512,0.438,1.127,1.136,1.439"/>
<path fill="none" stroke="#000000" stroke-miterlimit="10" d="M35.545,15.929c-0.137,0.412-0.899,0.871-1.264,1.077
	c-0.512,0.29-1.067,0.448-1.639,0.608"/>
<path fill="none" stroke="#000000" stroke-miterlimit="10" d="M32.596,16.163c0.52,0.418,0.857,0.909,1.182,1.533
	c0.327,0.631,0.884,1.146,0.925,1.884"/>
<path fill="none" stroke="#000000" stroke-miterlimit="10" d="M33.953,16.397c0.518,0.103,0.993,1.181,0.983,1.639"/>
<path fill="none" stroke="#000000" stroke-miterlimit="10" d="M33.392,16.538c0.957,0.697,1.349,2.523,1.03,3.652"/>
<path fill="none" stroke="#000000" stroke-miterlimit="10" d="M35.498,22.296c0.045,0.011,0.087-0.005,0.133,0.008
	c0.277,0.587,0.324,1.312,0.43,1.958c0.057,0.35,0.151,0.742,0.094,1.125c-0.046,0.309-0.261,0.615-0.328,0.889"/>
<path fill="none" stroke="#000000" stroke-miterlimit="10" d="M37.792,24.497c-0.184,0.738-1.205,1.705-1.872,1.919"/>
<path fill="none" stroke="#000000" stroke-miterlimit="10" d="M36.341,23.466c0.72-0.006,0.848,1.055,1.03,1.498"/>
<path fill="none" stroke="#000000" stroke-miterlimit="10" d="M38.822,24.637c-0.168,0.381-1.307,0.294-1.651,0.154
	c-0.488-0.199-0.832-0.688-1.157-1.043"/>
<path fill="none" stroke="#000000" stroke-miterlimit="10" d="M35.357,21.781c0.453,0.465,0.726,1.633,0.844,2.246
	c0.11,0.573-0.061,1.703-0.75,1.874"/>
<path fill="none" stroke="#000000" stroke-miterlimit="10" d="M36.81,24.918c0.046,0.007,0.086-0.005,0.133,0.007
	c0.044,0.561-0.61,0.991-0.986,1.304c-0.401,0.335-0.853,0.734-1.207,1.124"/>
<path fill="none" stroke="#000000" stroke-miterlimit="10" d="M34.469,28.897c0.281,0.887-0.401,1.565-0.011,2.431
	c0.316,0.699,0.307,1.739,0.76,2.345"/>
<path fill="none" stroke="#000000" stroke-miterlimit="10" d="M30.77,33.438c0.673-0.005,1.233-0.135,1.824-0.375
	c0.505-0.205,1.26-0.705,1.688-0.187"/>
<path fill="none" stroke="#000000" stroke-miterlimit="10" d="M33.438,30.302c0.412,0.331,0.393,1.287,0.515,1.779
	c0.107,0.434,0.319,1.209,0.702,1.451"/>
<path fill="none" stroke="#000000" stroke-miterlimit="10" d="M32.783,31.285c0.211,0.046,0.395,0.247,0.429,0.46
	c0.026,0.005,0.052,0.011,0.078,0.016c0.086,0.521,0.363,0.977,0.383,1.537"/>
<path fill="none" stroke="#000000" stroke-miterlimit="10" d="M28.71,35.171c-0.021,0.46-0.628,0.91-0.925,1.229
	c-0.42,0.449-0.463,0.879-0.573,1.486"/>
<path fill="none" stroke="#000000" stroke-miterlimit="10" d="M25.152,35.732c0.841,0.288,1.387,1.494,1.826,2.153"/>
<path fill="none" stroke="#000000" stroke-miterlimit="10" d="M26.416,35.218c0.854,0.321,0.866,1.675,1.17,2.388"/>
<path fill="none" stroke="#000000" stroke-miterlimit="10" d="M27.727,35.124c0.086,0.658-0.282,1.382-0.385,2.002
	c-0.058,0.354-0.079,0.667-0.037,1.042c0.024,0.223,0.194,0.814,0.095,0.795"/>
<path fill="none" stroke="#000000" stroke-miterlimit="10" d="M25.479,35.545c0.499,0.417,0.785,1.097,1.264,1.545"/>
<path fill="none" stroke="#000000" stroke-miterlimit="10" d="M26.322,35.404c0.214,0.208,0.377,0.519,0.515,0.796"/>
<path fill="none" stroke="#000000" stroke-miterlimit="10" d="M20.049,34.655c-0.521,0.508-1.757,1.265-1.686,2.107"/>
<path fill="none" stroke="#000000" stroke-miterlimit="10" d="M21.734,35.498c-0.824,0-2.311,0-2.903,0.563"/>
<path fill="none" stroke="#000000" stroke-miterlimit="10" d="M17.896,33.392c0.831,0.987,1.041,2.262,0.562,3.418"/>
<path fill="none" stroke="#000000" stroke-miterlimit="10" d="M19.159,33.579c0,0.636-0.06,1.406-0.328,1.919"/>
<path fill="none" stroke="#000000" stroke-miterlimit="10" d="M17.333,38.073c1.086-1.439,1.659-3.372,0.937-5.149"/>
<path fill="none" stroke="#000000" stroke-miterlimit="10" d="M17.474,32.455c0.221,0.523,0.476,1.237,0.749,1.686"/>
<path fill="none" stroke="#000000" stroke-miterlimit="10" d="M12.418,29.927c1.117-0.039,2.872-1.571,2.762-2.809"/>
<path fill="none" stroke="#000000" stroke-miterlimit="10" d="M13.729,27.118c0.427,0.542,0.466,1.621,0.749,2.283
	c0.247,0.58,0.554,1.447,1.077,1.884"/>
<path fill="none" stroke="#000000" stroke-miterlimit="10" d="M13.12,28.195c0.606,0.521,0.563,2.008,1.404,2.294"/>
<path fill="none" stroke="#000000" stroke-miterlimit="10" d="M11.903,29.833c0.408,0.166,0.919,0.032,1.346,0.151
	c0.381,0.105,0.751,0.392,1.125,0.564c0.63,0.292,1.454,0.813,2.164,0.876"/>
<path fill="none" stroke="#000000" stroke-miterlimit="10" d="M14.852,26.182c-0.169,0.703-0.519,1.482-0.842,2.155
	c-0.27,0.563-0.647,1.483-1.217,1.777"/>
<path fill="none" stroke="#000000" stroke-miterlimit="10" d="M12.652,21.219c0.832-0.088,1.726,1.081,2.013,1.732"/>
<path fill="none" stroke="#000000" stroke-miterlimit="10" d="M15.367,19.487c-0.386,0.591-0.988,1.004-1.277,1.636
	c-0.338,0.74-0.03,1.366,0.154,2.063"/>
<path fill="none" stroke="#000000" stroke-miterlimit="10" d="M14.946,20.938c-0.688,0.543-0.777,1.597-0.749,2.434"/>
<path fill="none" stroke="#000000" stroke-miterlimit="10" d="M11.856,20.611c1.499,0.231,1.905,1.848,2.388,3.043"/>
<path fill="none" stroke="#000000" stroke-miterlimit="10" d="M16.865,18.691c-0.678-0.065-1.519,0.753-2.026,1.157
	c-0.641,0.51-1.297,0.928-2.093,1.184"/>
<path fill="none" stroke="#000000" stroke-miterlimit="10" d="M13.822,22.67c0.438,0.056,0.392,1.06,0.562,1.358"/>
<path fill="none" stroke="#000000" stroke-miterlimit="10" d="M17.146,12.699c0.337,0.041,0.986,0.812,1.124,1.124"/>
<path fill="none" stroke="#000000" stroke-miterlimit="10" d="M37.371,23.981c0.332-0.028,0.6,0.104,0.843,0.234"/>
</svg>
